<mxfile host="app.diagrams.net" agent="Mozilla/5.0 (Windows NT 10.0; Win64; x64) AppleWebKit/537.36 (KHTML, like Gecko) Chrome/130.0.0.0 Safari/537.36 Edg/130.0.0.0" version="24.8.6">
  <diagram name="Страница — 1" id="uvx4n8Vfhzaru8OEaLiM">
    <mxGraphModel dx="401" dy="470" grid="1" gridSize="10" guides="1" tooltips="1" connect="1" arrows="1" fold="1" page="1" pageScale="1" pageWidth="3300" pageHeight="4681" math="0" shadow="0">
      <root>
        <mxCell id="0" />
        <mxCell id="1" parent="0" />
        <mxCell id="Nf1KAPgree7r9qNoz2z7-1" value="&lt;span style=&quot;white-space: pre;&quot;&gt;&#x9;&lt;/span&gt;Веб приложение &quot;Магазин цифровых игр&quot;" style="ellipse;whiteSpace=wrap;html=1;" parent="1" vertex="1">
          <mxGeometry x="1670" y="440" width="190" height="90" as="geometry" />
        </mxCell>
        <mxCell id="Nf1KAPgree7r9qNoz2z7-2" value="" style="endArrow=classic;html=1;rounded=0;" parent="1" edge="1">
          <mxGeometry width="50" height="50" relative="1" as="geometry">
            <mxPoint x="1764.5" y="530" as="sourcePoint" />
            <mxPoint x="1764.5" y="590" as="targetPoint" />
          </mxGeometry>
        </mxCell>
        <mxCell id="Nf1KAPgree7r9qNoz2z7-3" value="Home Page:&lt;div&gt;1. Game catalog;&lt;/div&gt;&lt;div&gt;2. User game library;&lt;/div&gt;&lt;div&gt;3.User account;&lt;/div&gt;&lt;div&gt;4. About us&lt;span style=&quot;background-color: initial;&quot;&gt;&amp;nbsp;&lt;/span&gt;&lt;/div&gt;" style="rounded=0;whiteSpace=wrap;html=1;" parent="1" vertex="1">
          <mxGeometry x="1632.5" y="590" width="265" height="170" as="geometry" />
        </mxCell>
        <mxCell id="Nf1KAPgree7r9qNoz2z7-4" value="" style="endArrow=classic;html=1;rounded=0;entryX=0.674;entryY=-0.027;entryDx=0;entryDy=0;entryPerimeter=0;" parent="1" target="Nf1KAPgree7r9qNoz2z7-11" edge="1">
          <mxGeometry width="50" height="50" relative="1" as="geometry">
            <mxPoint x="1632.5" y="760" as="sourcePoint" />
            <mxPoint x="1340" y="830" as="targetPoint" />
          </mxGeometry>
        </mxCell>
        <mxCell id="Nf1KAPgree7r9qNoz2z7-5" value="" style="endArrow=classic;html=1;rounded=0;entryX=0.5;entryY=0;entryDx=0;entryDy=0;" parent="1" target="Nf1KAPgree7r9qNoz2z7-10" edge="1">
          <mxGeometry width="50" height="50" relative="1" as="geometry">
            <mxPoint x="1742.5" y="760" as="sourcePoint" />
            <mxPoint x="1740" y="820" as="targetPoint" />
          </mxGeometry>
        </mxCell>
        <mxCell id="Nf1KAPgree7r9qNoz2z7-10" value="" style="rounded=1;whiteSpace=wrap;html=1;" parent="1" vertex="1">
          <mxGeometry x="2530" y="760" width="120" height="60" as="geometry" />
        </mxCell>
        <mxCell id="Nf1KAPgree7r9qNoz2z7-11" value="Game catalog:" style="rounded=1;whiteSpace=wrap;html=1;" parent="1" vertex="1">
          <mxGeometry x="660" y="760" width="200" height="130" as="geometry" />
        </mxCell>
        <mxCell id="Nf1KAPgree7r9qNoz2z7-84" style="edgeStyle=orthogonalEdgeStyle;rounded=0;orthogonalLoop=1;jettySize=auto;html=1;exitX=0;exitY=0.75;exitDx=0;exitDy=0;entryX=0.5;entryY=0;entryDx=0;entryDy=0;" parent="1" source="Nf1KAPgree7r9qNoz2z7-12" target="Nf1KAPgree7r9qNoz2z7-60" edge="1">
          <mxGeometry relative="1" as="geometry" />
        </mxCell>
        <mxCell id="Nf1KAPgree7r9qNoz2z7-12" value="2. Category" style="rounded=1;whiteSpace=wrap;html=1;" parent="1" vertex="1">
          <mxGeometry x="1210" y="1120" width="130" height="50" as="geometry" />
        </mxCell>
        <mxCell id="Nf1KAPgree7r9qNoz2z7-45" value="" style="edgeStyle=orthogonalEdgeStyle;rounded=0;orthogonalLoop=1;jettySize=auto;html=1;" parent="1" source="Nf1KAPgree7r9qNoz2z7-13" target="Nf1KAPgree7r9qNoz2z7-44" edge="1">
          <mxGeometry relative="1" as="geometry" />
        </mxCell>
        <mxCell id="Nf1KAPgree7r9qNoz2z7-13" value="3. New releases" style="whiteSpace=wrap;html=1;rounded=1;" parent="1" vertex="1">
          <mxGeometry x="1610" y="1110" width="100" height="40" as="geometry" />
        </mxCell>
        <mxCell id="Nf1KAPgree7r9qNoz2z7-47" value="" style="edgeStyle=orthogonalEdgeStyle;rounded=0;orthogonalLoop=1;jettySize=auto;html=1;" parent="1" source="Nf1KAPgree7r9qNoz2z7-17" target="Nf1KAPgree7r9qNoz2z7-46" edge="1">
          <mxGeometry relative="1" as="geometry" />
        </mxCell>
        <mxCell id="Nf1KAPgree7r9qNoz2z7-17" value="4. News" style="whiteSpace=wrap;html=1;rounded=1;" parent="1" vertex="1">
          <mxGeometry x="1905" y="1110" width="115" height="50" as="geometry" />
        </mxCell>
        <mxCell id="Nf1KAPgree7r9qNoz2z7-19" value="" style="endArrow=classic;html=1;rounded=0;fontStyle=1;entryX=0.163;entryY=0.009;entryDx=0;entryDy=0;entryPerimeter=0;exitX=0.952;exitY=0.98;exitDx=0;exitDy=0;exitPerimeter=0;" parent="1" source="Nf1KAPgree7r9qNoz2z7-11" target="Nf1KAPgree7r9qNoz2z7-13" edge="1">
          <mxGeometry width="50" height="50" relative="1" as="geometry">
            <mxPoint x="1450" y="970" as="sourcePoint" />
            <mxPoint x="1480" y="1110" as="targetPoint" />
            <Array as="points" />
          </mxGeometry>
        </mxCell>
        <mxCell id="Nf1KAPgree7r9qNoz2z7-20" value="" style="endArrow=classic;html=1;rounded=0;entryX=0.167;entryY=0;entryDx=0;entryDy=0;entryPerimeter=0;exitX=0.96;exitY=0.978;exitDx=0;exitDy=0;exitPerimeter=0;" parent="1" source="Nf1KAPgree7r9qNoz2z7-11" target="Nf1KAPgree7r9qNoz2z7-17" edge="1">
          <mxGeometry width="50" height="50" relative="1" as="geometry">
            <mxPoint x="1490" y="970" as="sourcePoint" />
            <mxPoint x="1520" y="1110" as="targetPoint" />
          </mxGeometry>
        </mxCell>
        <mxCell id="Nf1KAPgree7r9qNoz2z7-41" value="" style="edgeStyle=orthogonalEdgeStyle;rounded=0;orthogonalLoop=1;jettySize=auto;html=1;" parent="1" source="Nf1KAPgree7r9qNoz2z7-21" target="Nf1KAPgree7r9qNoz2z7-40" edge="1">
          <mxGeometry relative="1" as="geometry" />
        </mxCell>
        <mxCell id="Nf1KAPgree7r9qNoz2z7-21" value="1. PC" style="whiteSpace=wrap;html=1;rounded=1;" parent="1" vertex="1">
          <mxGeometry x="1420" y="1320" width="120" height="60" as="geometry" />
        </mxCell>
        <mxCell id="Nf1KAPgree7r9qNoz2z7-39" style="edgeStyle=orthogonalEdgeStyle;rounded=0;orthogonalLoop=1;jettySize=auto;html=1;exitX=0;exitY=1;exitDx=0;exitDy=0;entryX=0.5;entryY=0;entryDx=0;entryDy=0;" parent="1" source="Nf1KAPgree7r9qNoz2z7-23" target="Nf1KAPgree7r9qNoz2z7-29" edge="1">
          <mxGeometry relative="1" as="geometry" />
        </mxCell>
        <mxCell id="Nf1KAPgree7r9qNoz2z7-23" value="1. Shop" style="rounded=1;whiteSpace=wrap;html=1;" parent="1" vertex="1">
          <mxGeometry x="470" y="1110" width="120" height="60" as="geometry" />
        </mxCell>
        <mxCell id="Nf1KAPgree7r9qNoz2z7-24" value="" style="endArrow=classic;html=1;rounded=0;entryX=0.322;entryY=0.038;entryDx=0;entryDy=0;entryPerimeter=0;exitX=0.063;exitY=1.004;exitDx=0;exitDy=0;exitPerimeter=0;" parent="1" source="Nf1KAPgree7r9qNoz2z7-11" target="Nf1KAPgree7r9qNoz2z7-23" edge="1">
          <mxGeometry width="50" height="50" relative="1" as="geometry">
            <mxPoint x="1290" y="1060" as="sourcePoint" />
            <mxPoint x="1340" y="1010" as="targetPoint" />
          </mxGeometry>
        </mxCell>
        <mxCell id="Nf1KAPgree7r9qNoz2z7-25" value="" style="endArrow=classic;html=1;rounded=0;entryX=0.051;entryY=-0.049;entryDx=0;entryDy=0;entryPerimeter=0;exitX=0.367;exitY=1.011;exitDx=0;exitDy=0;exitPerimeter=0;" parent="1" source="Nf1KAPgree7r9qNoz2z7-11" target="Nf1KAPgree7r9qNoz2z7-12" edge="1">
          <mxGeometry width="50" height="50" relative="1" as="geometry">
            <mxPoint x="1385" y="1030" as="sourcePoint" />
            <mxPoint x="1435" y="980" as="targetPoint" />
          </mxGeometry>
        </mxCell>
        <mxCell id="Nf1KAPgree7r9qNoz2z7-88" value="" style="edgeStyle=orthogonalEdgeStyle;rounded=0;orthogonalLoop=1;jettySize=auto;html=1;" parent="1" source="Nf1KAPgree7r9qNoz2z7-29" target="Nf1KAPgree7r9qNoz2z7-87" edge="1">
          <mxGeometry relative="1" as="geometry" />
        </mxCell>
        <mxCell id="Nf1KAPgree7r9qNoz2z7-29" value="1. Main page" style="rounded=1;whiteSpace=wrap;html=1;" parent="1" vertex="1">
          <mxGeometry x="310" y="1280" width="120" height="60" as="geometry" />
        </mxCell>
        <mxCell id="Nf1KAPgree7r9qNoz2z7-90" value="" style="edgeStyle=orthogonalEdgeStyle;rounded=0;orthogonalLoop=1;jettySize=auto;html=1;" parent="1" source="Nf1KAPgree7r9qNoz2z7-30" target="Nf1KAPgree7r9qNoz2z7-89" edge="1">
          <mxGeometry relative="1" as="geometry" />
        </mxCell>
        <mxCell id="Nf1KAPgree7r9qNoz2z7-30" value="2. Subscriptions" style="whiteSpace=wrap;html=1;rounded=1;" parent="1" vertex="1">
          <mxGeometry x="450" y="1280" width="120" height="60" as="geometry" />
        </mxCell>
        <mxCell id="Nf1KAPgree7r9qNoz2z7-32" value="" style="endArrow=classic;html=1;rounded=0;entryX=0.75;entryY=0;entryDx=0;entryDy=0;exitX=0.5;exitY=1;exitDx=0;exitDy=0;" parent="1" source="Nf1KAPgree7r9qNoz2z7-23" target="Nf1KAPgree7r9qNoz2z7-30" edge="1">
          <mxGeometry width="50" height="50" relative="1" as="geometry">
            <mxPoint x="1350" y="1170" as="sourcePoint" />
            <mxPoint x="1400" y="1120" as="targetPoint" />
          </mxGeometry>
        </mxCell>
        <mxCell id="Nf1KAPgree7r9qNoz2z7-33" value="" style="endArrow=classic;html=1;rounded=0;exitX=1;exitY=1;exitDx=0;exitDy=0;" parent="1" source="Nf1KAPgree7r9qNoz2z7-23" target="Nf1KAPgree7r9qNoz2z7-34" edge="1">
          <mxGeometry width="50" height="50" relative="1" as="geometry">
            <mxPoint x="1360" y="1170" as="sourcePoint" />
            <mxPoint x="1410" y="1380" as="targetPoint" />
          </mxGeometry>
        </mxCell>
        <mxCell id="Nf1KAPgree7r9qNoz2z7-91" value="" style="edgeStyle=orthogonalEdgeStyle;rounded=0;orthogonalLoop=1;jettySize=auto;html=1;" parent="1" source="Nf1KAPgree7r9qNoz2z7-34" edge="1">
          <mxGeometry relative="1" as="geometry">
            <mxPoint x="660" y="1390" as="targetPoint" />
            <Array as="points">
              <mxPoint x="640" y="1390" />
              <mxPoint x="640" y="1390" />
            </Array>
          </mxGeometry>
        </mxCell>
        <mxCell id="Nf1KAPgree7r9qNoz2z7-34" value="3. Recommendations" style="rounded=1;whiteSpace=wrap;html=1;" parent="1" vertex="1">
          <mxGeometry x="580" y="1280" width="120" height="60" as="geometry" />
        </mxCell>
        <mxCell id="Nf1KAPgree7r9qNoz2z7-43" value="" style="edgeStyle=orthogonalEdgeStyle;rounded=0;orthogonalLoop=1;jettySize=auto;html=1;" parent="1" source="Nf1KAPgree7r9qNoz2z7-36" target="Nf1KAPgree7r9qNoz2z7-42" edge="1">
          <mxGeometry relative="1" as="geometry" />
        </mxCell>
        <mxCell id="Nf1KAPgree7r9qNoz2z7-36" value="2. Mobile" style="rounded=1;whiteSpace=wrap;html=1;" parent="1" vertex="1">
          <mxGeometry x="1630" y="1320" width="120" height="60" as="geometry" />
        </mxCell>
        <mxCell id="Nf1KAPgree7r9qNoz2z7-49" value="" style="edgeStyle=orthogonalEdgeStyle;rounded=0;orthogonalLoop=1;jettySize=auto;html=1;" parent="1" source="Nf1KAPgree7r9qNoz2z7-40" edge="1">
          <mxGeometry relative="1" as="geometry">
            <mxPoint x="1480" y="1610" as="targetPoint" />
          </mxGeometry>
        </mxCell>
        <mxCell id="Nf1KAPgree7r9qNoz2z7-40" value="Genre" style="whiteSpace=wrap;html=1;rounded=1;" parent="1" vertex="1">
          <mxGeometry x="1420" y="1460" width="120" height="60" as="geometry" />
        </mxCell>
        <mxCell id="Nf1KAPgree7r9qNoz2z7-57" value="" style="edgeStyle=orthogonalEdgeStyle;rounded=0;orthogonalLoop=1;jettySize=auto;html=1;" parent="1" source="Nf1KAPgree7r9qNoz2z7-42" target="Nf1KAPgree7r9qNoz2z7-55" edge="1">
          <mxGeometry relative="1" as="geometry" />
        </mxCell>
        <mxCell id="Nf1KAPgree7r9qNoz2z7-58" style="edgeStyle=orthogonalEdgeStyle;rounded=0;orthogonalLoop=1;jettySize=auto;html=1;exitX=0.5;exitY=1;exitDx=0;exitDy=0;entryX=0.5;entryY=0;entryDx=0;entryDy=0;" parent="1" source="Nf1KAPgree7r9qNoz2z7-42" target="Nf1KAPgree7r9qNoz2z7-54" edge="1">
          <mxGeometry relative="1" as="geometry" />
        </mxCell>
        <mxCell id="Nf1KAPgree7r9qNoz2z7-59" style="edgeStyle=orthogonalEdgeStyle;rounded=0;orthogonalLoop=1;jettySize=auto;html=1;exitX=1;exitY=1;exitDx=0;exitDy=0;entryX=0.25;entryY=0;entryDx=0;entryDy=0;" parent="1" source="Nf1KAPgree7r9qNoz2z7-42" target="Nf1KAPgree7r9qNoz2z7-56" edge="1">
          <mxGeometry relative="1" as="geometry" />
        </mxCell>
        <mxCell id="Nf1KAPgree7r9qNoz2z7-42" value="Genre" style="whiteSpace=wrap;html=1;rounded=1;" parent="1" vertex="1">
          <mxGeometry x="1630" y="1460" width="120" height="50" as="geometry" />
        </mxCell>
        <mxCell id="Nf1KAPgree7r9qNoz2z7-44" value="Releases List" style="whiteSpace=wrap;html=1;rounded=1;" parent="1" vertex="1">
          <mxGeometry x="1610" y="1190" width="100" height="40" as="geometry" />
        </mxCell>
        <mxCell id="Nf1KAPgree7r9qNoz2z7-46" value="News List" style="whiteSpace=wrap;html=1;rounded=1;" parent="1" vertex="1">
          <mxGeometry x="1915" y="1190" width="95" height="40" as="geometry" />
        </mxCell>
        <mxCell id="Nf1KAPgree7r9qNoz2z7-48" value="1.Horror" style="whiteSpace=wrap;html=1;rounded=1;" parent="1" vertex="1">
          <mxGeometry x="1300" y="1610" width="70" height="40" as="geometry" />
        </mxCell>
        <mxCell id="Nf1KAPgree7r9qNoz2z7-50" value="" style="edgeStyle=orthogonalEdgeStyle;rounded=0;orthogonalLoop=1;jettySize=auto;html=1;entryX=0.453;entryY=-0.028;entryDx=0;entryDy=0;entryPerimeter=0;" parent="1" target="Nf1KAPgree7r9qNoz2z7-48" edge="1">
          <mxGeometry relative="1" as="geometry">
            <mxPoint x="1480" y="1520" as="sourcePoint" />
            <mxPoint x="1490" y="1620" as="targetPoint" />
          </mxGeometry>
        </mxCell>
        <mxCell id="Nf1KAPgree7r9qNoz2z7-51" value="" style="edgeStyle=orthogonalEdgeStyle;rounded=0;orthogonalLoop=1;jettySize=auto;html=1;exitX=0.969;exitY=0.994;exitDx=0;exitDy=0;exitPerimeter=0;" parent="1" source="Nf1KAPgree7r9qNoz2z7-40" edge="1">
          <mxGeometry relative="1" as="geometry">
            <mxPoint x="1500" y="1540" as="sourcePoint" />
            <mxPoint x="1536" y="1610" as="targetPoint" />
          </mxGeometry>
        </mxCell>
        <mxCell id="Nf1KAPgree7r9qNoz2z7-52" value="2. Detective" style="whiteSpace=wrap;html=1;rounded=1;" parent="1" vertex="1">
          <mxGeometry x="1420" y="1610" width="70" height="40" as="geometry" />
        </mxCell>
        <mxCell id="Nf1KAPgree7r9qNoz2z7-53" value="3. History" style="whiteSpace=wrap;html=1;rounded=1;" parent="1" vertex="1">
          <mxGeometry x="1530" y="1610" width="70" height="40" as="geometry" />
        </mxCell>
        <mxCell id="Nf1KAPgree7r9qNoz2z7-54" value="1.Horror" style="whiteSpace=wrap;html=1;rounded=1;" parent="1" vertex="1">
          <mxGeometry x="1570" y="1560" width="70" height="40" as="geometry" />
        </mxCell>
        <mxCell id="Nf1KAPgree7r9qNoz2z7-55" value="2. Detective" style="whiteSpace=wrap;html=1;rounded=1;" parent="1" vertex="1">
          <mxGeometry x="1690" y="1560" width="70" height="40" as="geometry" />
        </mxCell>
        <mxCell id="Nf1KAPgree7r9qNoz2z7-56" value="3. History" style="whiteSpace=wrap;html=1;rounded=1;" parent="1" vertex="1">
          <mxGeometry x="1800" y="1560" width="70" height="40" as="geometry" />
        </mxCell>
        <mxCell id="Nf1KAPgree7r9qNoz2z7-85" style="edgeStyle=orthogonalEdgeStyle;rounded=0;orthogonalLoop=1;jettySize=auto;html=1;exitX=0;exitY=1;exitDx=0;exitDy=0;entryX=0.75;entryY=0;entryDx=0;entryDy=0;" parent="1" source="Nf1KAPgree7r9qNoz2z7-60" target="Nf1KAPgree7r9qNoz2z7-63" edge="1">
          <mxGeometry relative="1" as="geometry" />
        </mxCell>
        <mxCell id="Nf1KAPgree7r9qNoz2z7-86" style="edgeStyle=orthogonalEdgeStyle;rounded=0;orthogonalLoop=1;jettySize=auto;html=1;exitX=0.5;exitY=1;exitDx=0;exitDy=0;entryX=0.5;entryY=0;entryDx=0;entryDy=0;" parent="1" source="Nf1KAPgree7r9qNoz2z7-60" target="Nf1KAPgree7r9qNoz2z7-65" edge="1">
          <mxGeometry relative="1" as="geometry" />
        </mxCell>
        <mxCell id="Nf1KAPgree7r9qNoz2z7-60" value="Free games" style="rounded=1;whiteSpace=wrap;html=1;" parent="1" vertex="1">
          <mxGeometry x="1100" y="1200" width="120" height="60" as="geometry" />
        </mxCell>
        <mxCell id="Nf1KAPgree7r9qNoz2z7-62" value="" style="edgeStyle=orthogonalEdgeStyle;rounded=0;orthogonalLoop=1;jettySize=auto;html=1;" parent="1" source="Nf1KAPgree7r9qNoz2z7-63" edge="1">
          <mxGeometry relative="1" as="geometry">
            <mxPoint x="940.0666666666666" y="1580" as="targetPoint" />
          </mxGeometry>
        </mxCell>
        <mxCell id="Nf1KAPgree7r9qNoz2z7-63" value="1. PC" style="whiteSpace=wrap;html=1;rounded=1;" parent="1" vertex="1">
          <mxGeometry x="920" y="1415" width="90" height="45" as="geometry" />
        </mxCell>
        <mxCell id="Nf1KAPgree7r9qNoz2z7-64" value="" style="edgeStyle=orthogonalEdgeStyle;rounded=0;orthogonalLoop=1;jettySize=auto;html=1;" parent="1" source="Nf1KAPgree7r9qNoz2z7-65" target="Nf1KAPgree7r9qNoz2z7-71" edge="1">
          <mxGeometry relative="1" as="geometry" />
        </mxCell>
        <mxCell id="Nf1KAPgree7r9qNoz2z7-65" value="2. Mobile" style="rounded=1;whiteSpace=wrap;html=1;" parent="1" vertex="1">
          <mxGeometry x="1060" y="1415" width="120" height="60" as="geometry" />
        </mxCell>
        <mxCell id="Nf1KAPgree7r9qNoz2z7-66" value="" style="edgeStyle=orthogonalEdgeStyle;rounded=0;orthogonalLoop=1;jettySize=auto;html=1;" parent="1" edge="1">
          <mxGeometry relative="1" as="geometry">
            <mxPoint x="910" y="1705" as="targetPoint" />
            <mxPoint x="940.0666666666666" y="1615" as="sourcePoint" />
          </mxGeometry>
        </mxCell>
        <mxCell id="Nf1KAPgree7r9qNoz2z7-67" value="Genre" style="whiteSpace=wrap;html=1;rounded=1;" parent="1" vertex="1">
          <mxGeometry x="900" y="1580" width="100" height="35" as="geometry" />
        </mxCell>
        <mxCell id="Nf1KAPgree7r9qNoz2z7-68" value="" style="edgeStyle=orthogonalEdgeStyle;rounded=0;orthogonalLoop=1;jettySize=auto;html=1;" parent="1" source="Nf1KAPgree7r9qNoz2z7-71" target="Nf1KAPgree7r9qNoz2z7-78" edge="1">
          <mxGeometry relative="1" as="geometry" />
        </mxCell>
        <mxCell id="Nf1KAPgree7r9qNoz2z7-69" style="edgeStyle=orthogonalEdgeStyle;rounded=0;orthogonalLoop=1;jettySize=auto;html=1;exitX=0.5;exitY=1;exitDx=0;exitDy=0;entryX=0.5;entryY=0;entryDx=0;entryDy=0;" parent="1" source="Nf1KAPgree7r9qNoz2z7-71" target="Nf1KAPgree7r9qNoz2z7-77" edge="1">
          <mxGeometry relative="1" as="geometry" />
        </mxCell>
        <mxCell id="Nf1KAPgree7r9qNoz2z7-70" style="edgeStyle=orthogonalEdgeStyle;rounded=0;orthogonalLoop=1;jettySize=auto;html=1;exitX=1;exitY=1;exitDx=0;exitDy=0;entryX=0.25;entryY=0;entryDx=0;entryDy=0;" parent="1" source="Nf1KAPgree7r9qNoz2z7-71" target="Nf1KAPgree7r9qNoz2z7-79" edge="1">
          <mxGeometry relative="1" as="geometry" />
        </mxCell>
        <mxCell id="Nf1KAPgree7r9qNoz2z7-71" value="Genre" style="whiteSpace=wrap;html=1;rounded=1;" parent="1" vertex="1">
          <mxGeometry x="1060" y="1555" width="120" height="50" as="geometry" />
        </mxCell>
        <mxCell id="Nf1KAPgree7r9qNoz2z7-72" value="1.Horror" style="whiteSpace=wrap;html=1;rounded=1;" parent="1" vertex="1">
          <mxGeometry x="815" y="1655" width="70" height="40" as="geometry" />
        </mxCell>
        <mxCell id="Nf1KAPgree7r9qNoz2z7-73" value="" style="edgeStyle=orthogonalEdgeStyle;rounded=0;orthogonalLoop=1;jettySize=auto;html=1;entryX=0.453;entryY=-0.028;entryDx=0;entryDy=0;entryPerimeter=0;" parent="1" target="Nf1KAPgree7r9qNoz2z7-72" edge="1">
          <mxGeometry relative="1" as="geometry">
            <mxPoint x="920" y="1615" as="sourcePoint" />
            <mxPoint x="930" y="1715" as="targetPoint" />
          </mxGeometry>
        </mxCell>
        <mxCell id="Nf1KAPgree7r9qNoz2z7-74" value="" style="edgeStyle=orthogonalEdgeStyle;rounded=0;orthogonalLoop=1;jettySize=auto;html=1;exitX=0.969;exitY=0.994;exitDx=0;exitDy=0;exitPerimeter=0;" parent="1" edge="1">
          <mxGeometry relative="1" as="geometry">
            <mxPoint x="986.9000000000001" y="1614.79" as="sourcePoint" />
            <mxPoint x="966" y="1705" as="targetPoint" />
          </mxGeometry>
        </mxCell>
        <mxCell id="Nf1KAPgree7r9qNoz2z7-75" value="2. Detective" style="whiteSpace=wrap;html=1;rounded=1;" parent="1" vertex="1">
          <mxGeometry x="860" y="1705" width="70" height="40" as="geometry" />
        </mxCell>
        <mxCell id="Nf1KAPgree7r9qNoz2z7-76" value="3. History" style="whiteSpace=wrap;html=1;rounded=1;" parent="1" vertex="1">
          <mxGeometry x="960" y="1705" width="70" height="40" as="geometry" />
        </mxCell>
        <mxCell id="Nf1KAPgree7r9qNoz2z7-77" value="1.Horror" style="whiteSpace=wrap;html=1;rounded=1;" parent="1" vertex="1">
          <mxGeometry x="1000" y="1655" width="70" height="40" as="geometry" />
        </mxCell>
        <mxCell id="Nf1KAPgree7r9qNoz2z7-78" value="2. Detective" style="whiteSpace=wrap;html=1;rounded=1;" parent="1" vertex="1">
          <mxGeometry x="1120" y="1655" width="70" height="40" as="geometry" />
        </mxCell>
        <mxCell id="Nf1KAPgree7r9qNoz2z7-79" value="3. History" style="whiteSpace=wrap;html=1;rounded=1;" parent="1" vertex="1">
          <mxGeometry x="1230" y="1655" width="70" height="40" as="geometry" />
        </mxCell>
        <mxCell id="Nf1KAPgree7r9qNoz2z7-81" value="" style="endArrow=classic;html=1;rounded=0;entryX=0.108;entryY=0.106;entryDx=0;entryDy=0;entryPerimeter=0;" parent="1" target="Nf1KAPgree7r9qNoz2z7-80" edge="1">
          <mxGeometry width="50" height="50" relative="1" as="geometry">
            <mxPoint x="1340" y="1170" as="sourcePoint" />
            <mxPoint x="1643" y="1326" as="targetPoint" />
          </mxGeometry>
        </mxCell>
        <mxCell id="Nf1KAPgree7r9qNoz2z7-82" value="" style="edgeStyle=orthogonalEdgeStyle;rounded=0;orthogonalLoop=1;jettySize=auto;html=1;" parent="1" source="Nf1KAPgree7r9qNoz2z7-80" target="Nf1KAPgree7r9qNoz2z7-21" edge="1">
          <mxGeometry relative="1" as="geometry" />
        </mxCell>
        <mxCell id="Nf1KAPgree7r9qNoz2z7-83" value="" style="edgeStyle=orthogonalEdgeStyle;rounded=0;orthogonalLoop=1;jettySize=auto;html=1;entryX=0;entryY=0.5;entryDx=0;entryDy=0;" parent="1" source="Nf1KAPgree7r9qNoz2z7-80" target="Nf1KAPgree7r9qNoz2z7-36" edge="1">
          <mxGeometry relative="1" as="geometry" />
        </mxCell>
        <mxCell id="Nf1KAPgree7r9qNoz2z7-80" value="Not free games" style="rounded=1;whiteSpace=wrap;html=1;" parent="1" vertex="1">
          <mxGeometry x="1390" y="1200" width="120" height="60" as="geometry" />
        </mxCell>
        <mxCell id="Nf1KAPgree7r9qNoz2z7-94" value="" style="edgeStyle=orthogonalEdgeStyle;rounded=0;orthogonalLoop=1;jettySize=auto;html=1;entryX=0.5;entryY=0;entryDx=0;entryDy=0;exitX=0;exitY=0.4;exitDx=0;exitDy=0;exitPerimeter=0;" parent="1" source="Nf1KAPgree7r9qNoz2z7-29" target="Nf1KAPgree7r9qNoz2z7-97" edge="1">
          <mxGeometry relative="1" as="geometry">
            <mxPoint x="370" y="1550" as="targetPoint" />
          </mxGeometry>
        </mxCell>
        <mxCell id="aSG86lMgNuL2MHbdCZXe-1" value="" style="edgeStyle=none;curved=1;rounded=0;orthogonalLoop=1;jettySize=auto;html=1;fontSize=12;startSize=8;endSize=8;" edge="1" parent="1" source="Nf1KAPgree7r9qNoz2z7-87" target="Nf1KAPgree7r9qNoz2z7-99">
          <mxGeometry relative="1" as="geometry" />
        </mxCell>
        <mxCell id="Nf1KAPgree7r9qNoz2z7-87" value="Shop Info" style="rounded=1;whiteSpace=wrap;html=1;fillColor=#f8cecc;strokeColor=#b85450;" parent="1" vertex="1">
          <mxGeometry x="310" y="1420" width="120" height="60" as="geometry" />
        </mxCell>
        <mxCell id="OQTUpjxQFzUb8Uef9vV_-2" value="" style="edgeStyle=orthogonalEdgeStyle;rounded=0;orthogonalLoop=1;jettySize=auto;html=1;" parent="1" source="Nf1KAPgree7r9qNoz2z7-89" target="OQTUpjxQFzUb8Uef9vV_-1" edge="1">
          <mxGeometry relative="1" as="geometry" />
        </mxCell>
        <mxCell id="Nf1KAPgree7r9qNoz2z7-89" value="User subscriptions information" style="whiteSpace=wrap;html=1;rounded=1;fillColor=#f8cecc;strokeColor=#b85450;" parent="1" vertex="1">
          <mxGeometry x="450" y="1400" width="120" height="60" as="geometry" />
        </mxCell>
        <mxCell id="Nf1KAPgree7r9qNoz2z7-92" value="Recommendation list from other user" style="rounded=1;whiteSpace=wrap;html=1;fillColor=#f8cecc;strokeColor=#b85450;" parent="1" vertex="1">
          <mxGeometry x="620" y="1460" width="120" height="60" as="geometry" />
        </mxCell>
        <mxCell id="Nf1KAPgree7r9qNoz2z7-95" value="Actor" style="shape=umlActor;verticalLabelPosition=bottom;verticalAlign=top;html=1;outlineConnect=0;" parent="1" vertex="1">
          <mxGeometry x="960" y="1130" width="30" height="60" as="geometry" />
        </mxCell>
        <mxCell id="Nf1KAPgree7r9qNoz2z7-101" value="" style="edgeStyle=orthogonalEdgeStyle;rounded=0;orthogonalLoop=1;jettySize=auto;html=1;" parent="1" source="Nf1KAPgree7r9qNoz2z7-97" target="Nf1KAPgree7r9qNoz2z7-100" edge="1">
          <mxGeometry relative="1" as="geometry" />
        </mxCell>
        <mxCell id="Nf1KAPgree7r9qNoz2z7-97" value="Main information" style="rounded=1;whiteSpace=wrap;html=1;" parent="1" vertex="1">
          <mxGeometry x="150" y="1550" width="120" height="60" as="geometry" />
        </mxCell>
        <mxCell id="Nf1KAPgree7r9qNoz2z7-98" value="Contacts" style="rounded=1;whiteSpace=wrap;html=1;" parent="1" vertex="1">
          <mxGeometry x="300" y="1510" width="120" height="60" as="geometry" />
        </mxCell>
        <mxCell id="Nf1KAPgree7r9qNoz2z7-99" value="Address" style="rounded=1;whiteSpace=wrap;html=1;" parent="1" vertex="1">
          <mxGeometry x="290" y="1620" width="120" height="60" as="geometry" />
        </mxCell>
        <mxCell id="Nf1KAPgree7r9qNoz2z7-100" value="Fields:&lt;div&gt;&lt;ul&gt;&lt;li&gt;History&lt;/li&gt;&lt;li&gt;Owner&lt;/li&gt;&lt;li&gt;Facts&lt;/li&gt;&lt;li&gt;Specialization&lt;/li&gt;&lt;/ul&gt;&lt;/div&gt;" style="whiteSpace=wrap;html=1;rounded=1;" parent="1" vertex="1">
          <mxGeometry x="150" y="1690" width="120" height="100" as="geometry" />
        </mxCell>
        <mxCell id="OQTUpjxQFzUb8Uef9vV_-1" value="&lt;span style=&quot;background-color: initial; font-size: 9px; text-align: justify;&quot;&gt;Fields:&lt;/span&gt;&lt;br&gt;&lt;ol style=&quot;font-size: 9px;&quot;&gt;&lt;li&gt;&lt;span style=&quot;background-color: initial;&quot;&gt;Subscription type&lt;/span&gt;&lt;span style=&quot;background-color: initial;&quot;&gt;&amp;nbsp;&amp;nbsp;&lt;/span&gt;&lt;/li&gt;&lt;li&gt;&lt;span style=&quot;background-color: initial;&quot;&gt;Subscription start date&lt;/span&gt;&lt;span style=&quot;background-color: initial;&quot;&gt;&amp;nbsp;&lt;/span&gt;&lt;/li&gt;&lt;li&gt;&lt;span style=&quot;background-color: initial;&quot;&gt;Subscription end date&lt;/span&gt;&lt;/li&gt;&lt;li&gt;&lt;span style=&quot;background-color: initial;&quot;&gt;Payment method&lt;/span&gt;&lt;span style=&quot;background-color: initial;&quot;&gt;&amp;nbsp;&amp;nbsp;&lt;/span&gt;&lt;/li&gt;&lt;li&gt;&lt;span style=&quot;background-color: initial;&quot;&gt;Subscription status&lt;/span&gt;&lt;span style=&quot;background-color: initial;&quot;&gt; – active, expired, suspended&lt;/span&gt;&lt;/li&gt;&lt;li&gt;&lt;span style=&quot;background-color: initial;&quot;&gt;Subscription tier&lt;/span&gt;&lt;span style=&quot;background-color: initial;&quot;&gt; – basic, premium, pro&lt;/span&gt;&lt;/li&gt;&lt;li&gt;&lt;span style=&quot;background-color: initial;&quot;&gt;Payment history&lt;/span&gt;&lt;span style=&quot;background-color: initial;&quot;&gt;&amp;nbsp;&lt;/span&gt;&lt;/li&gt;&lt;li&gt;&lt;span style=&quot;background-color: initial;&quot;&gt;Last payment date&lt;/span&gt;&lt;span style=&quot;background-color: initial;&quot;&gt;&amp;nbsp;&lt;/span&gt;&lt;/li&gt;&lt;/ol&gt;" style="whiteSpace=wrap;html=1;fillColor=#f8cecc;strokeColor=#b85450;rounded=1;" parent="1" vertex="1">
          <mxGeometry x="435" y="1550" width="150" height="170" as="geometry" />
        </mxCell>
        <mxCell id="OQTUpjxQFzUb8Uef9vV_-6" value="" style="edgeStyle=orthogonalEdgeStyle;rounded=0;orthogonalLoop=1;jettySize=auto;html=1;exitX=0.5;exitY=1;exitDx=0;exitDy=0;" parent="1" source="Nf1KAPgree7r9qNoz2z7-92" target="OQTUpjxQFzUb8Uef9vV_-5" edge="1">
          <mxGeometry relative="1" as="geometry">
            <mxPoint x="680.0285714285715" y="1610" as="sourcePoint" />
          </mxGeometry>
        </mxCell>
        <mxCell id="OQTUpjxQFzUb8Uef9vV_-5" value="&lt;p style=&quot;font-size: 11px;&quot; data-pm-slice=&quot;1 1 []&quot;&gt;&lt;/p&gt;&lt;ol&gt;&lt;li&gt;&lt;font style=&quot;font-size: 11px;&quot;&gt;&lt;span style=&quot;font-size: 12px;&quot;&gt;Description&lt;/span&gt;&lt;/font&gt;&lt;/li&gt;&lt;li&gt;&lt;font style=&quot;font-size: 11px;&quot;&gt;Recommended by user&lt;/font&gt;&lt;/li&gt;&lt;li&gt;&lt;font style=&quot;font-size: 11px;&quot;&gt;Game name&lt;/font&gt;&lt;/li&gt;&lt;li&gt;&lt;font style=&quot;font-size: 11px;&quot;&gt;Rating of the game&lt;/font&gt;&lt;/li&gt;&lt;li&gt;&lt;font style=&quot;&quot;&gt;&lt;span style=&quot;font-size: 11px;&quot;&gt;RecommendationComment&lt;/span&gt;&lt;/font&gt;&lt;/li&gt;&lt;/ol&gt;&lt;p&gt;&lt;/p&gt;" style="whiteSpace=wrap;html=1;fillColor=#f8cecc;strokeColor=#b85450;rounded=1;" parent="1" vertex="1">
          <mxGeometry x="590" y="1555" width="180" height="120" as="geometry" />
        </mxCell>
        <mxCell id="aSG86lMgNuL2MHbdCZXe-2" value="Description" style="rounded=1;whiteSpace=wrap;html=1;" vertex="1" parent="1">
          <mxGeometry x="660" y="1370" width="120" height="60" as="geometry" />
        </mxCell>
        <mxCell id="aSG86lMgNuL2MHbdCZXe-4" value="" style="endArrow=classic;html=1;rounded=0;fontSize=12;startSize=8;endSize=8;curved=1;exitX=0.5;exitY=1;exitDx=0;exitDy=0;entryX=0.168;entryY=0;entryDx=0;entryDy=0;entryPerimeter=0;" edge="1" parent="1" source="Nf1KAPgree7r9qNoz2z7-34" target="Nf1KAPgree7r9qNoz2z7-92">
          <mxGeometry width="50" height="50" relative="1" as="geometry">
            <mxPoint x="600" y="1420" as="sourcePoint" />
            <mxPoint x="640" y="1450" as="targetPoint" />
          </mxGeometry>
        </mxCell>
      </root>
    </mxGraphModel>
  </diagram>
</mxfile>
